<svg xmlns="http://www.w3.org/2000/svg" width="1200" height="770" viewBox="0 0 1200 770" font-family="'Apple SD Gothic Neo','Malgun Gothic','Noto Sans KR','Noto Sans CJK KR',sans-serif">
<defs><marker id="ah" markerWidth="9" markerHeight="9" refX="8" refY="4.5" orient="auto"><path d="M0,0 L9,4.5 L0,9 z" fill="#222222"/></marker><marker id="ah-s" markerWidth="9" markerHeight="9" refX="1" refY="4.5" orient="auto"><path d="M9,0 L0,4.5 L9,9 z" fill="#222222"/></marker></defs>
<rect width="1200" height="770" fill="#ffffff"/>
<rect x="70" y="70" width="270" height="120" rx="8" fill="#ffffff" stroke="#222222" stroke-width="1.5" />
<text x="205.0" y="92" text-anchor="middle" font-size="14" font-weight="700" fill="#222222"  >진단 도구 (5종)</text>
<text x="84" y="112" text-anchor="start" font-size="11" font-weight="400" fill="#222222"  font-family="Menlo,Consolas,monospace">search_logs</text>
<text x="326" y="112" text-anchor="end" font-size="11" font-weight="400" fill="#445"  >Log DB</text>
<text x="84" y="129" text-anchor="start" font-size="11" font-weight="400" fill="#222222"  font-family="Menlo,Consolas,monospace">list_insight_cards</text>
<text x="326" y="129" text-anchor="end" font-size="11" font-weight="400" fill="#445"  >Insight Read DB</text>
<text x="84" y="146" text-anchor="start" font-size="11" font-weight="400" fill="#222222"  font-family="Menlo,Consolas,monospace">get_insight_card</text>
<text x="326" y="146" text-anchor="end" font-size="11" font-weight="400" fill="#445"  >Insight Read DB</text>
<text x="84" y="163" text-anchor="start" font-size="11" font-weight="400" fill="#222222"  font-family="Menlo,Consolas,monospace">read_source_code</text>
<text x="326" y="163" text-anchor="end" font-size="11" font-weight="400" fill="#445"  >소스 코드</text>
<text x="84" y="180" text-anchor="start" font-size="11" font-weight="400" fill="#222222"  font-family="Menlo,Consolas,monospace">get_sensor_baseline</text>
<text x="326" y="180" text-anchor="end" font-size="11" font-weight="400" fill="#445"  >센서 기준값 문서</text>
<path d="M70,244 v58 a135.0,9 0 0 0 270,0 v-58" fill="#e9edf2" stroke="#222222" stroke-width="1.5"/>
<ellipse cx="205.0" cy="244" rx="135.0" ry="9" fill="#d5dbe3" stroke="#222222" stroke-width="1.5"/>
<text x="205.0" y="276.0" text-anchor="middle" font-size="14" font-weight="700" fill="#222222"  >Log DB</text>
<text x="205.0" y="294.0" text-anchor="middle" font-size="11.5" font-weight="400" fill="#445"  >log_event 테이블</text>
<path d="M70,351 v58 a135.0,9 0 0 0 270,0 v-58" fill="#e9edf2" stroke="#222222" stroke-width="1.5"/>
<ellipse cx="205.0" cy="351" rx="135.0" ry="9" fill="#d5dbe3" stroke="#222222" stroke-width="1.5"/>
<text x="205.0" y="383.0" text-anchor="middle" font-size="14" font-weight="700" fill="#222222"  >Insight Read DB</text>
<text x="205.0" y="401.0" text-anchor="middle" font-size="11.5" font-weight="400" fill="#445"  >스키마 정보 (M-Schema)</text>
<path d="M70,458 v58 a135.0,9 0 0 0 270,0 v-58" fill="#e9edf2" stroke="#222222" stroke-width="1.5"/>
<ellipse cx="205.0" cy="458" rx="135.0" ry="9" fill="#d5dbe3" stroke="#222222" stroke-width="1.5"/>
<text x="205.0" y="490.0" text-anchor="middle" font-size="14" font-weight="700" fill="#222222"  >소스 코드</text>
<text x="205.0" y="508.0" text-anchor="middle" font-size="11.5" font-weight="400" fill="#445"  >프로젝션 로직 · 스키마 · 컨트롤러</text>
<path d="M70,565 v58 a135.0,9 0 0 0 270,0 v-58" fill="#e9edf2" stroke="#222222" stroke-width="1.5"/>
<ellipse cx="205.0" cy="565" rx="135.0" ry="9" fill="#d5dbe3" stroke="#222222" stroke-width="1.5"/>
<text x="205.0" y="597.0" text-anchor="middle" font-size="14" font-weight="700" fill="#222222"  >센서 기준값 문서</text>
<text x="205.0" y="615.0" text-anchor="middle" font-size="11.5" font-weight="400" fill="#445"  >규칙명 · 기대 범위 · 분포 통계</text>
<polyline points="70,130.0 42,130.0 42,594.0" fill="none" stroke="#222222" stroke-width="1.5" stroke-dasharray="6 4"  />
<polyline points="42,273.0 70,273.0" fill="none" stroke="#222222" stroke-width="1.5" stroke-dasharray="6 4"  marker-end="url(#ah)"/>
<polyline points="42,380.0 70,380.0" fill="none" stroke="#222222" stroke-width="1.5" stroke-dasharray="6 4"  marker-end="url(#ah)"/>
<polyline points="42,487.0 70,487.0" fill="none" stroke="#222222" stroke-width="1.5" stroke-dasharray="6 4"  marker-end="url(#ah)"/>
<polyline points="42,594.0 70,594.0" fill="none" stroke="#222222" stroke-width="1.5" stroke-dasharray="6 4"  marker-end="url(#ah)"/>
<rect x="70" y="655" width="270" height="64" rx="6" fill="#ffffff" stroke="#222222" stroke-width="1.2" stroke-dasharray="4 3"/>
<text x="205.0" y="675" text-anchor="middle" font-size="12.5" font-weight="700" fill="#222222"  >입력 상한</text>
<text x="205.0" y="693" text-anchor="middle" font-size="11.5" font-weight="400" fill="#445"  >로그 구간 80행 · 센서 입력 16건</text>
<text x="205.0" y="709" text-anchor="middle" font-size="11.5" font-weight="400" fill="#445"  >도구 결과 4,000자 · 소스 열람 120행</text>
<text x="790.0" y="36" text-anchor="middle" font-size="12.5" font-weight="700" fill="#445"  >이상 감지 결과 — 이상 로그 구간(로그 경로) 또는 센서 이상 판정 결과(센서 경로)</text>
<polyline points="790.0,44 790.0,70" fill="none" stroke="#222222" stroke-width="1.5"   marker-end="url(#ah)"/>
<rect x="430" y="70" width="720" height="120" rx="8" fill="#ffffff" stroke="#222222" stroke-width="1.5" />
<text x="448" y="98" text-anchor="start" font-size="15" font-weight="700" fill="#222222"  >근본원인 분석 (진단 에이전트)</text>
<text x="448" y="124" text-anchor="start" font-size="12.5" font-weight="400" fill="#222222"  >사전 주입: 이상 로그 구간 또는 센서 이상 판정 결과</text>
<text x="448" y="146" text-anchor="start" font-size="12.5" font-weight="400" fill="#222222"  >도구 조회: 분석 도중 필요한 근거를 다섯 가지 도구로 조회</text>
<text x="448" y="168" text-anchor="start" font-size="11.5" font-weight="400" fill="#445"  >(도구 결과는 4,000자에서 잘리며, 잘리면 조건을 좁혀 다시 조회하도록 안내)</text>
<polyline points="430,130.0 340,130.0" fill="none" stroke="#222222" stroke-width="1.5" stroke-dasharray="6 4" marker-start="url(#ah-s)" marker-end="url(#ah)"/>
<text x="385.0" y="122.0" text-anchor="middle" font-size="11.5" font-weight="400" fill="#445" paint-order="stroke" stroke="#ffffff" stroke-width="5" stroke-linejoin="round" >도구 호출 / 결과</text>
<rect x="430" y="235" width="720" height="76" rx="8" fill="#ffffff" stroke="#222222" stroke-width="1.5" />
<text x="448" y="263" text-anchor="start" font-size="15" font-weight="700" fill="#222222"  >조치 결정</text>
<text x="448" y="289" text-anchor="start" font-size="12.5" font-weight="400" fill="#222222"  >근본원인 분석 결과 + 로그 구간 원문 + 스키마 정보 전체 (예시 값 제거)</text>
<rect x="430" y="342" width="720" height="212" rx="8" fill="#ffffff" stroke="#222222" stroke-width="1.5" />
<text x="448" y="370" text-anchor="start" font-size="15" font-weight="700" fill="#222222"  >산출물 생성</text>
<text x="448" y="394" text-anchor="start" font-size="12.5" font-weight="400" fill="#222222"  >근본원인 분석 결과 + 스키마 정보 + 기존 소스 코드 발췌 (생성 코드의 형식·스타일 기준)</text>
<rect x="448" y="414" width="300" height="78" rx="6" fill="#e9edf2" stroke="#222222" stroke-width="1.3" />
<text x="598.0" y="438" text-anchor="middle" font-size="13" font-weight="700" fill="#222222"  >신규 Read Model 설계 → 투영 매핑</text>
<text x="598.0" y="458" text-anchor="middle" font-size="11.5" font-weight="400" fill="#445"  >설계: 스키마 정보 (예시 값 제거)</text>
<text x="598.0" y="476" text-anchor="middle" font-size="11.5" font-weight="400" fill="#445"  >매핑: 스키마 정보 원문 (예시 값 포함) + 확정 설계</text>
<rect x="832" y="414" width="300" height="78" rx="6" fill="#e9edf2" stroke="#222222" stroke-width="1.3" />
<text x="982.0" y="438" text-anchor="middle" font-size="13" font-weight="700" fill="#222222"  >권고 문서 · 버전 전환 · 데이터 품질</text>
<text x="982.0" y="458" text-anchor="middle" font-size="11.5" font-weight="400" fill="#445"  >스키마 정보 (예시 값 제거)</text>
<text x="982.0" y="476" text-anchor="middle" font-size="11.5" font-weight="400" fill="#445"  >+ 확정 설계 ("그대로 재사용하라" 안내)</text>
<polyline points="748,453.0 832,453.0" fill="none" stroke="#222222" stroke-width="1.8"   marker-end="url(#ah)"/>
<text x="790.0" y="445.0" text-anchor="middle" font-size="12" font-weight="700" fill="#222222" paint-order="stroke" stroke="#ffffff" stroke-width="5" stroke-linejoin="round" >확정 설계</text>
<text x="790.0" y="471.0" text-anchor="middle" font-size="10.5" font-weight="400" fill="#445" paint-order="stroke" stroke="#ffffff" stroke-width="5" stroke-linejoin="round" >(테이블명·키·필드·DDL)</text>
<text x="448" y="512" text-anchor="start" font-size="11.5" font-weight="400" fill="#445"  >신규 Read Model이 선택된 경우, 먼저 확정된 설계를 이후 단계에 공통 입력하여</text>
<text x="448" y="530" text-anchor="start" font-size="11.5" font-weight="400" fill="#445"  >단계마다 스키마를 제각기 만드는 문제를 막는다 (처리 순서는 3.5절).</text>
<rect x="430" y="600" width="720" height="56" rx="8" fill="#e9edf2" stroke="#222222" stroke-width="1.5" />
<text x="448" y="624" text-anchor="start" font-size="15" font-weight="700" fill="#222222"  >조립</text>
<text x="448" y="644" text-anchor="start" font-size="12.5" font-weight="400" fill="#222222"  >LLM을 호출하지 않고 각 단계의 산출물을 하나의 결과로 결합</text>
<polyline points="790.0,190 790.0,235" fill="none" stroke="#222222" stroke-width="1.8"   marker-end="url(#ah)"/>
<polyline points="790.0,311 790.0,342" fill="none" stroke="#222222" stroke-width="1.8"   marker-end="url(#ah)"/>
<polyline points="790.0,554 790.0,600" fill="none" stroke="#222222" stroke-width="1.8"   marker-end="url(#ah)"/>
<polyline points="340,273.0 430,273.0" fill="none" stroke="#222222" stroke-width="1.5"   marker-end="url(#ah)"/>
<text x="374.2" y="265.0" text-anchor="middle" font-size="11.5" font-weight="400" fill="#445" paint-order="stroke" stroke="#ffffff" stroke-width="5" stroke-linejoin="round" >로그 구간 원문</text>
<polyline points="340,380.0 430,297" fill="none" stroke="#222222" stroke-width="1.5"   marker-end="url(#ah)"/>
<text x="374.2" y="340.46" text-anchor="middle" font-size="11.5" font-weight="400" fill="#445" paint-order="stroke" stroke="#ffffff" stroke-width="5" stroke-linejoin="round" >스키마 정보 전체</text>
<polyline points="340,380.0 430,412" fill="none" stroke="#222222" stroke-width="1.5"   marker-end="url(#ah)"/>
<text x="374.2" y="384.16" text-anchor="middle" font-size="11.5" font-weight="400" fill="#445" paint-order="stroke" stroke="#ffffff" stroke-width="5" stroke-linejoin="round" >스키마 정보 전체</text>
<polyline points="340,487.0 430,452" fill="none" stroke="#222222" stroke-width="1.5"   marker-end="url(#ah)"/>
<text x="374.2" y="465.7" text-anchor="middle" font-size="11.5" font-weight="400" fill="#445" paint-order="stroke" stroke="#ffffff" stroke-width="5" stroke-linejoin="round" >소스 코드 발췌</text>
<polyline points="90,745 140,745" fill="none" stroke="#222222" stroke-width="1.5"   marker-end="url(#ah)"/>
<text x="150" y="749" text-anchor="start" font-size="12" font-weight="400" fill="#222222"  >사전 주입(push): 분석 시작 전에 입력</text>
<polyline points="430,745 480,745" fill="none" stroke="#222222" stroke-width="1.5" stroke-dasharray="6 4" marker-start="url(#ah-s)" marker-end="url(#ah)"/>
<text x="490" y="749" text-anchor="start" font-size="12" font-weight="400" fill="#222222"  >도구 조회(pull): 진단 에이전트가 분석 도중 조회</text>
<rect x="830" y="736" width="26" height="18" fill="#ffffff" stroke="#222222" stroke-width="1.3"/>
<text x="864" y="749" text-anchor="start" font-size="12" font-weight="400" fill="#222222"  >LLM 호출 단계</text>
<rect x="990" y="736" width="26" height="18" fill="#e9edf2" stroke="#222222" stroke-width="1.3"/>
<text x="1024" y="749" text-anchor="start" font-size="12" font-weight="400" fill="#222222"  >LLM 미호출 단계</text>
</svg>