<svg xmlns="http://www.w3.org/2000/svg" width="1100" height="560" viewBox="0 0 1100 560" font-family="'Apple SD Gothic Neo','Malgun Gothic','Noto Sans KR','Noto Sans CJK KR',sans-serif">
<defs><marker id="m222222" viewBox="0 0 10 10" refX="9" refY="5" markerWidth="7" markerHeight="7" orient="auto-start-reverse"><path d="M 0 0 L 10 5 L 0 10 z" fill="#222222"/></marker></defs>
<rect width="1100" height="560" fill="#ffffff"/>
<circle cx="60" cy="82" r="9" fill="#222222"/>
<rect x="90" y="60" width="150" height="44" rx="12" fill="#fff8e8" stroke="#a0812f" stroke-width="1.6"/>
<text x="165.0" y="78.5" text-anchor="middle" font-size="11.5" font-weight="700" fill="#8a6d1f">LLM 응답</text>
<text x="165.0" y="93.0" text-anchor="middle" font-size="9.5" fill="#556">산문 추론 + ```json</text>
<polyline points="69,82 90,82" fill="none" stroke="#222222" stroke-width="1.4" stroke-linejoin="round" marker-end="url(#m222222)"/>
<path d="M335.0,54 L400,82.0 L335.0,110 L270,82.0 z" fill="#ffffff" stroke="#222222" stroke-width="1.4"/>
<text x="335.0" y="79.5" text-anchor="middle" font-size="10.5" fill="#222" font-weight="600">① zod 파싱</text>
<text x="335.0" y="92.5" text-anchor="middle" font-size="10.5" fill="#222">성공?</text>
<polyline points="240,82 270,82" fill="none" stroke="#222222" stroke-width="1.4" stroke-linejoin="round" marker-end="url(#m222222)"/>
<path d="M495.0,54 L560,82.0 L495.0,110 L430,82.0 z" fill="#ffffff" stroke="#222222" stroke-width="1.4"/>
<text x="495.0" y="79.5" text-anchor="middle" font-size="10.5" fill="#222" font-weight="600">② 한자 혼입</text>
<text x="495.0" y="92.5" text-anchor="middle" font-size="10.5" fill="#222">없음?</text>
<polyline points="400,82 430,82" fill="none" stroke="#222222" stroke-width="1.4" stroke-linejoin="round" marker-end="url(#m222222)"/>
<text x="415.0" y="77.0" text-anchor="middle" font-size="10" fill="#222" paint-order="stroke" stroke="#ffffff" stroke-width="4" stroke-linejoin="round">예</text>
<path d="M665.0,54 L740,82.0 L665.0,110 L590,82.0 z" fill="#ffffff" stroke="#222222" stroke-width="1.4"/>
<text x="665.0" y="79.5" text-anchor="middle" font-size="10.5" fill="#222" font-weight="600">③ 의미 검증</text>
<text x="665.0" y="92.5" text-anchor="middle" font-size="10.5" fill="#222">실DB · tsc · 키 실재</text>
<polyline points="560,82 590,82" fill="none" stroke="#222222" stroke-width="1.4" stroke-linejoin="round" marker-end="url(#m222222)"/>
<text x="575.0" y="77.0" text-anchor="middle" font-size="10" fill="#222" paint-order="stroke" stroke="#ffffff" stroke-width="4" stroke-linejoin="round">예</text>
<rect x="780" y="60" width="130" height="44" rx="12" fill="#ffffff" stroke="#8b95a3" stroke-width="1.6"/>
<text x="845.0" y="78.5" text-anchor="middle" font-size="11.5" font-weight="700" fill="#333333">④ 근거 대조</text>
<text x="845.0" y="93.0" text-anchor="middle" font-size="9.5" fill="#556">행 제거 · 0개면 폐기</text>
<polyline points="740,82 780,82" fill="none" stroke="#222222" stroke-width="1.4" stroke-linejoin="round" marker-end="url(#m222222)"/>
<text x="760.0" y="77.0" text-anchor="middle" font-size="10" fill="#222" paint-order="stroke" stroke="#ffffff" stroke-width="4" stroke-linejoin="round">통과</text>
<rect x="940" y="60" width="130" height="44" rx="12" fill="#ffffff" stroke="#8b95a3" stroke-width="1.6"/>
<text x="1005.0" y="78.5" text-anchor="middle" font-size="11.5" font-weight="700" fill="#333333">⑥ 무결성 게이트</text>
<text x="1005.0" y="93.0" text-anchor="middle" font-size="9.5" fill="#556">권고 없는 산출물 보정</text>
<polyline points="910,82 940,82" fill="none" stroke="#222222" stroke-width="1.4" stroke-linejoin="round" marker-end="url(#m222222)"/>
<path d="M495.0,190 L560,218.0 L495.0,246 L430,218.0 z" fill="#ffffff" stroke="#222222" stroke-width="1.4"/>
<text x="495.0" y="215.5" text-anchor="middle" font-size="10.5" fill="#222" font-weight="600">재요청 예산</text>
<text x="495.0" y="228.5" text-anchor="middle" font-size="10.5" fill="#222">남음? (≤1)</text>
<polyline points="335,110 335,168 495,168 495,190" fill="none" stroke="#222222" stroke-width="1.4" stroke-linejoin="round" marker-end="url(#m222222)"/>
<text x="350" y="162" text-anchor="middle" font-size="10" fill="#222" paint-order="stroke" stroke="#ffffff" stroke-width="4" stroke-linejoin="round">아니오</text>
<polyline points="495,110 495,168" fill="none" stroke="#222222" stroke-width="1.4" stroke-linejoin="round" marker-end="url(#m222222)"/>
<text x="512" y="150" text-anchor="middle" font-size="10" fill="#222" paint-order="stroke" stroke="#ffffff" stroke-width="4" stroke-linejoin="round">아니오</text>
<polyline points="665,110 665,218 560,218" fill="none" stroke="#222222" stroke-width="1.4" stroke-linejoin="round" marker-end="url(#m222222)"/>
<text x="680" y="212" text-anchor="middle" font-size="10" fill="#222" paint-order="stroke" stroke="#ffffff" stroke-width="4" stroke-linejoin="round">실패</text>
<rect x="90" y="196" width="200" height="44" rx="12" fill="#fff8e8" stroke="#a0812f" stroke-width="1.6"/>
<text x="190.0" y="214.5" text-anchor="middle" font-size="11.5" font-weight="700" fill="#8a6d1f">재요청 (re-ask)</text>
<text x="190.0" y="229.0" text-anchor="middle" font-size="9.5" fill="#556">직전 출력 + 오류 → 대화 누적</text>
<polyline points="430,218 290,218" fill="none" stroke="#222222" stroke-width="1.4" stroke-linejoin="round" marker-end="url(#m222222)"/>
<text x="360" y="212" text-anchor="middle" font-size="10" fill="#222" paint-order="stroke" stroke="#ffffff" stroke-width="4" stroke-linejoin="round">예</text>
<polyline points="190,196 190,104" fill="none" stroke="#222222" stroke-width="1.4" stroke-linejoin="round" marker-end="url(#m222222)"/>
<rect x="590" y="270" width="220" height="50" rx="12" fill="#ffffff" stroke="#8b95a3" stroke-width="1.6"/>
<text x="700.0" y="284.8" text-anchor="middle" font-size="11.5" font-weight="700" fill="#333333">⑤ 결정론 합성 (템플릿)</text>
<text x="700.0" y="299.2" text-anchor="middle" font-size="9.5" fill="#556">검증된 fields · keyColumns → DDL · Drizzle</text>
<text x="700.0" y="312.8" text-anchor="middle" font-size="9.5" fill="#556">Projector · 권고 · 버전 (유도 불가 = null+TODO)</text>
<polyline points="495,246 495,295 590,295" fill="none" stroke="#222222" stroke-width="1.4" stroke-linejoin="round" marker-end="url(#m222222)"/>
<text x="540" y="288" text-anchor="middle" font-size="10" fill="#222" paint-order="stroke" stroke="#ffffff" stroke-width="4" stroke-linejoin="round">아니오 (소진)</text>
<polyline points="810,295 845,295 845,104" fill="none" stroke="#222222" stroke-width="1.4" stroke-linejoin="round" marker-end="url(#m222222)"/>
<rect x="940" y="330" width="130" height="44" rx="12" fill="#ffffff" stroke="#8b95a3" stroke-width="1.6"/>
<text x="1005.0" y="348.5" text-anchor="middle" font-size="11.5" font-weight="700" fill="#333333">⑦ 문서 계약 검증</text>
<text x="1005.0" y="363.0" text-anchor="middle" font-size="9.5" fill="#556">기록만 · 루프백 없음</text>
<polyline points="1005,104 1005,330" fill="none" stroke="#222222" stroke-width="1.4" stroke-linejoin="round" marker-end="url(#m222222)"/>
<rect x="760" y="330" width="150" height="44" rx="12" fill="#fbeef0" stroke="#a04050" stroke-width="1.6"/>
<text x="835.0" y="348.5" text-anchor="middle" font-size="11.5" font-weight="700" fill="#8c3444">Docs 저장</text>
<text x="835.0" y="363.0" text-anchor="middle" font-size="9.5" fill="#556">llm-docs/*.md</text>
<polyline points="940,352 910,352" fill="none" stroke="#222222" stroke-width="1.4" stroke-linejoin="round" marker-end="url(#m222222)"/>
<circle cx="720" cy="352" r="10" fill="#fff" stroke="#222222" stroke-width="1.5"/>
<circle cx="720" cy="352" r="6" fill="#222222"/>
<polyline points="760,352 731,352" fill="none" stroke="#222222" stroke-width="1.4" stroke-linejoin="round" marker-end="url(#m222222)"/>
<rect x="90" y="300" width="380" height="60" rx="10" fill="#ffffff" stroke="#8b95a3" stroke-width="1.6" stroke-dasharray="6 4"/>
<text x="280.0" y="319.5" text-anchor="middle" font-size="11" font-weight="700" fill="#333333">전송 실패 (타임아웃 등)는 별도 예산 3회</text>
<text x="280.0" y="333.5" text-anchor="middle" font-size="9.5" fill="#556">재요청 예산(모델 출력 시도 2회)을 잠식하지 않음</text>
<text x="280.0" y="347.0" text-anchor="middle" font-size="9.5" fill="#556">직렬 큐 · thinking 억제 · 마지막 펜스 + jsonrepair</text>
<rect x="30" y="400" width="1040" height="130" rx="14" fill="#fafbfc" stroke="#999" stroke-width="1.2" stroke-dasharray="7 5"/>
<text x="48" y="424" font-size="13" font-weight="600" fill="#777">원칙 — LLM은 '어떤 컬럼을 왜'(설계 판단)만, 실행 가능성은 결정론이 보장</text>
<text x="50" y="448" text-anchor="start" font-size="10" fill="#333" paint-order="stroke" stroke="#ffffff" stroke-width="4" stroke-linejoin="round">①~③ 형태·문체·실행 가능성을 생성 시점에 실측: 실제 PostgreSQL에서 BEGIN → DDL → ROLLBACK, 임시 디렉터리에서 tsc --noEmit, 드리프트 키 zod 확장·payload 키 실재</text>
<text x="50" y="470" text-anchor="start" font-size="10" fill="#333" paint-order="stroke" stroke="#ffffff" stroke-width="4" stroke-linejoin="round">④~⑥ 입력에 실재하지 않는 값은 행 단위로 제거하고, 재요청 후에도 남은 결함은 검증된 설계로부터 템플릿 합성 — 값을 발명하지 않음</text>
<text x="50" y="492" text-anchor="start" font-size="10" fill="#333" paint-order="stroke" stroke="#ffffff" stroke-width="4" stroke-linejoin="round">⑦ 문서 수준 계약(front-matter · 3절 순서 · Guardrails · 인용 앵커 · 토큰 예산 8K/20K)은 위반을 info 로그로 기록만 하고 재실행은 사람의 판단에 맡김</text>
<rect x="30" y="537" width="18" height="13" rx="3" fill="#fff8e8" stroke="#a0812f" stroke-width="1.2"/>
<text x="54" y="548" font-size="11" fill="#555">LLM 호출</text>
<rect x="122.31" y="537" width="18" height="13" rx="3" fill="#ffffff" stroke="#8b95a3" stroke-width="1.2"/>
<text x="146.31" y="548" font-size="11" fill="#555">결정론 검증·합성</text>
<rect x="248.72" y="537" width="18" height="13" rx="3" fill="#fbeef0" stroke="#a04050" stroke-width="1.2"/>
<text x="272.72" y="548" font-size="11" fill="#555">산출물</text>
</svg>
